HIERARCHY
ROOT Hips
{
  OFFSET 3.13124 94.3669 -3.18751
  CHANNELS  6 Xposition Yposition Zposition Zrotation Xrotation Yrotation
  JOINT LeftUpLeg
  {
    OFFSET 8.64259 1.95398 -2.38835
    CHANNELS 3 Zrotation Xrotation Yrotation
    JOINT LeftLeg
    {
      OFFSET 43.7702 0 0
      CHANNELS 3 Zrotation Xrotation Yrotation
      JOINT LeftFoot
      {
        OFFSET 40.6238 0 0
        CHANNELS 3 Zrotation Xrotation Yrotation
        JOINT LeftToeBase
        {
          OFFSET 12.7242 0 0
          CHANNELS 3 Zrotation Xrotation Yrotation
          End Site
          {
            OFFSET 0 0 0
          }
        }
      }
    }
  }
  JOINT RightUpLeg
  {
    OFFSET -8.2249 1.95398 -2.59336
    CHANNELS 3 Zrotation Xrotation Yrotation
    JOINT RightLeg
    {
      OFFSET 43.5653 0 0
      CHANNELS 3 Zrotation Xrotation Yrotation
      JOINT RightFoot
      {
        OFFSET 40.6238 0 0
        CHANNELS 3 Zrotation Xrotation Yrotation
        JOINT RightToeBase
        {
          OFFSET 12.7242 0 0
          CHANNELS 3 Zrotation Xrotation Yrotation
          End Site
          {
            OFFSET 0 0 0
          }
        }
      }
    }
  }
  JOINT Spine
  {
    OFFSET 0.165834 0.87714 6.61349
    CHANNELS 3 Zrotation Xrotation Yrotation
    JOINT Spine1
    {
      OFFSET 7.38962 1.71661e-005 0
      CHANNELS 3 Zrotation Xrotation Yrotation
      JOINT Spine2
      {
        OFFSET 11.9445 1.14441e-005 0
        CHANNELS 3 Zrotation Xrotation Yrotation
        JOINT Spine3
        {
          OFFSET 14.7254 4.19617e-005 0
          CHANNELS 3 Zrotation Xrotation Yrotation
          JOINT Spine4
          {
            OFFSET 10.9679 0 0
            CHANNELS 3 Zrotation Xrotation Yrotation
            JOINT RightShoulder
            {
              OFFSET 2.46616 -1.6653 3.69651
              CHANNELS 3 Zrotation Xrotation Yrotation
              JOINT RightArm
              {
                OFFSET 13.0012 0 0
                CHANNELS 3 Zrotation Xrotation Yrotation
                JOINT RightForeArm
                {
                  OFFSET 28.7848 1.52588e-005 0
                  CHANNELS 3 Zrotation Xrotation Yrotation
                  JOINT RightHand
                  {
                    OFFSET 26.5688 1.52588e-005 0
                    CHANNELS 3 Zrotation Xrotation Yrotation
                    End Site
                    {
                      OFFSET 0 0 0
                    }
                  }
                }
              }
            }
            JOINT LeftShoulder
            {
              OFFSET 2.38034 -1.29275 -3.75231
              CHANNELS 3 Zrotation Xrotation Yrotation
              JOINT LeftArm
              {
                OFFSET 16.3182 6.10352e-005 0
                CHANNELS 3 Zrotation Xrotation Yrotation
                JOINT LeftForeArm
                {
                  OFFSET 27.0901 0 0
                  CHANNELS 3 Zrotation Xrotation Yrotation
                  JOINT LeftHand
                  {
                    OFFSET 24.5451 1.52588e-005 0
                    CHANNELS 3 Zrotation Xrotation Yrotation
                    End Site
                    {
                      OFFSET 0 0 0
                    }
                  }
                }
              }
            }
            JOINT Neck
            {
              OFFSET 5.0226 -0.0266342 0
              CHANNELS 3 Zrotation Xrotation Yrotation
              JOINT Head
              {
                OFFSET 6.69363 2.86102e-005 0
                CHANNELS 3 Zrotation Xrotation Yrotation
                End Site
                {
                  OFFSET 0 0 0
                }
              }
            }
          }
        }
      }
    }
  }
}
MOTION
Frames:	16
Frame Time:	0.0333333
-65.3557 96.5016 -67.039 -78.8922 51.4939 -96.1621 -173.851 13.284 87.3919 -21.1023 -9.18118 -0.253289 69.0365 0.869174 0.448632 28.7808 5.58174e-006 2.58452e-007 160.769 8.82402 73.0908 -1.22173 10.5016 -2.79709 23.1297 10.2751 13.6191 28.7808 1.48996e-005 2.93456e-005 0.229579 8.14172 -88.5543 10.6082 0.97667 -0.00965922 -1.06233 0.975317 -0.0526478 -23.6003 0.934413 0.284343 -3.58762 0.93443 0.284342 85.0335 -56.5827 -106.406 11.7765 31.4562 -21.9065 4.00838 -0.368871 -16.8013 -5.37983 -0.32001 -0.0162448 -102.371 -50.4492 60.773 -14.6048 -18.5973 -22.1632 162.534 63.3682 -159.953 -23.6969 4.1061 -26.4065 10.1915 -4.36773 -12.2308 -19.1167 -1.56233 0.497994 
-66.8723 96.527 -66.6655 -77.321 56.0894 -97.2223 -174.067 12.3845 87.2676 -20.1133 -13.7006 -1.18845 69.3252 1.22419 0.665769 28.7808 5.58174e-006 2.58452e-007 160.822 5.36534 73.1391 -2.35668 19.0747 -2.51858 24.0269 8.1644 10.9162 28.7808 1.48996e-005 2.93456e-005 0.256255 7.99084 -88.6541 10.9094 0.867644 -0.122259 -0.761227 0.861412 -0.160332 -23.2987 0.864251 0.144178 -3.28603 0.864274 0.14417 85.8062 -58.1245 -104.91 10.1971 33.1798 -16.7972 1.42103 0.123572 -15.8457 -5.37983 -0.32001 -0.0162448 -101.785 -51.0202 61.8315 -15.3958 -18.6709 -22.4323 160.196 62.6362 -155.779 -13.2942 2.09389 -26.9157 7.62362 -5.47423 -14.1633 -19.1205 -2.52505 0.366531 
-68.2887 96.7335 -66.4106 -73.3732 62.5113 -100.242 -174.074 11.3481 87.6732 -17.8494 -19.5855 -2.76654 68.8944 1.88484 1.03829 28.7808 5.58174e-006 2.58452e-007 161.4 2.71582 74.6513 -3.29107 19.7158 -2.91542 21.0254 8.73591 12.2651 28.7808 1.48996e-005 2.93456e-005 0.381788 7.79575 -88.8942 11.3007 0.99722 -0.167446 -0.369895 0.98889 -0.211178 -22.9081 1.00143 0.140031 -2.89545 1.00143 0.140031 86.3683 -58.8743 -103.943 8.71274 34.5982 -11.9165 0.938616 0.148432 -13.045 -5.37983 -0.32001 -0.0162448 -101.378 -51.6082 62.6333 -14.6623 -19.1787 -20.9062 61.0746 76.0608 -61.0103 -13.1456 1.72384 -23.3559 5.34404 -5.74391 -16.4574 -18.6936 -2.8148 1.47121 
-69.5819 96.8882 -66.4437 -67.3378 69.8056 -105.785 -174.172 9.48902 87.9604 -15.0946 -25.9485 -4.54124 68.415 2.67602 1.48216 28.7808 5.58174e-006 2.58452e-007 161.707 -0.163581 76.6221 -4.75532 12.201 -3.53548 21.4377 9.85246 13.5252 28.7808 1.48996e-005 2.93456e-005 0.487049 7.62401 -89.1803 11.6408 1.10961 -0.122566 -0.0297147 1.10316 -0.171304 -22.5686 1.09514 0.216625 -2.55595 1.09516 0.216621 87.133 -58.5207 -102.976 7.69429 34.5091 -7.08642 0.43692 0.29413 -10.8458 -5.37983 -0.32001 -0.0162448 -100.409 -52.143 64.201 -13.7892 -19.9819 -18.2037 17.4449 52.3754 -24.043 -10.2071 0.630947 -14.8954 3.96467 -5.10403 -16.3851 -19.5335 -2.18377 -0.0261224 
-70.4454 96.5776 -66.6349 -57.0849 76.3373 -116.615 -174.49 8.54401 87.2531 -14.8954 -31.5769 -5.97157 69.0656 3.29637 1.83588 28.7808 5.58174e-006 2.58452e-007 162.219 -4.01504 78.0393 -6.65998 3.92162 -4.32712 26.6241 9.15035 11.3717 28.7808 1.48996e-005 2.93456e-005 0.440287 7.45599 -88.8541 11.9787 0.948025 0.046737 0.308123 0.949166 0.00495646 -22.2295 0.890147 0.329519 -2.21691 0.890151 0.329519 88.2652 -57.9193 -101.545 6.98666 34.3488 -2.71088 0.39414 0.311957 -10.0358 -5.37983 -0.32001 -0.0162448 -99.3896 -52.7987 65.8704 -11.8902 -20.2665 -14.6369 3.12533 26.4472 -18.86 -5.65698 0.0966806 -11.1462 1.34742 -3.91289 -16.407 -19.164 -1.25072 -0.915795 
-70.8444 96.039 -66.8425 -32.1244 81.699 -142.256 -174.128 9.11249 86.6104 -17.7192 -34.5759 -6.89895 70.3012 3.83641 2.13591 28.7808 5.58174e-006 2.58452e-007 163.731 -8.30638 78.6606 -6.43436 17.9712 -4.03101 24.2162 20.1431 24.6269 28.7808 1.48996e-005 2.93456e-005 0.441472 7.30747 -88.0586 12.2742 0.730536 0.0988615 0.603456 0.734182 0.0666052 -21.9331 0.667045 0.31385 -1.92045 0.66705 0.313857 89.742 -57.018 -99.6666 6.9223 35.3722 0.2597 -0.383871 0.326105 -10.0736 -5.37983 -0.32001 -0.0162448 -99.3903 -53.1919 66.0034 -9.4199 -20.3622 -11.1982 -3.68325 11.6377 -18.1222 -4.19287 0.0993052 -16.1463 -1.28585 -2.40496 -16.1507 -17.7255 -0.0918824 -1.55321 
-71.4936 96.0635 -67.2122 16.0525 83.2259 168.822 -174.535 7.76031 85.9963 -16.8621 -34.1167 -6.67891 70.0174 1.91765 1.17398 28.7808 5.58174e-006 2.58452e-007 164.212 -11.3858 79.8697 -6.33004 17.857 -4.19294 18.481 19.9148 26.9729 28.7808 1.48996e-005 2.93456e-005 0.301396 7.1816 -88.0898 12.5149 0.373763 0.334849 0.84394 0.388137 0.318061 -21.6911 0.255841 0.431703 -1.67846 0.255848 0.431693 91.4651 -56.015 -97.4099 6.48728 34.6152 2.78998 0.213712 0.283162 -11.0514 -5.37983 -0.32001 -0.0162448 -99.6651 -53.3003 65.6546 -7.48141 -21.0862 -8.25338 -5.15607 8.24516 -17.8762 -4.29071 0.139972 -18.0594 -3.86061 -1.50365 -15.7876 -16.746 0.448055 -2.03682 
-71.8785 96.1027 -67.5415 50.2953 79.3804 133.941 -174.842 7.37164 85.5876 -16.0313 -30.6257 -5.7822 69.7944 2.92851 1.65313 28.7808 5.58174e-006 2.58452e-007 165.312 -13.1424 82.1548 -6.70141 13.5658 -4.5863 18.632 19.7118 26.6191 28.7808 1.48996e-005 2.93456e-005 0.101685 6.97807 -88.2305 12.9115 0.0394916 0.554932 1.24044 0.0638869 0.552651 -21.2938 -0.129104 0.54115 -1.28115 -0.129095 0.541147 92.413 -54.9425 -96.2313 5.7119 34.0084 4.98629 0.957377 0.200634 -12.1125 -5.37983 -0.32001 -0.0162448 -99.8389 -53.297 65.4098 -5.68343 -22.2355 -6.09256 -3.83085 12.0888 -16.8936 -2.97645 -0.0020361 -16.5134 -5.88092 -0.359104 -15.1222 -15.7011 1.2713 -2.35006 
-72.2104 96.5143 -67.2915 58.5954 71.5712 125.54 -174.968 9.64753 86.1178 -14.5003 -27.325 -5.08371 68.0445 2.66171 1.4956 28.7808 5.58174e-006 2.58452e-007 167.926 -10.5737 86.4476 -7.86614 5.34459 -5.5689 17.3562 16.0525 22.58 28.7808 1.48996e-005 2.93456e-005 -0.0977185 6.47725 -88.5789 13.9118 -0.109402 0.624532 2.24072 -0.0818175 0.628727 -20.2934 -0.292049 0.562775 -0.280809 -0.292042 0.562775 92.4109 -54.1877 -96.3639 4.96791 32.9749 7.31465 1.67962 0.112873 -13.7425 -5.37983 -0.32001 -0.0162448 -98.4483 -52.5899 67.1319 -5.68307 -25.0326 -5.06385 4.57195 28.0701 -15.2943 -14.8967 1.91338 -22.6621 -7.32878 0.408783 -14.5853 -15.7323 1.86596 -2.81268 
-72.6025 97.1248 -66.704 62.6093 61.6335 121.727 -174.565 12.5151 87.6001 -12.4912 -24.2756 -4.55598 65.7194 2.93749 1.62725 28.7808 5.58174e-006 2.58452e-007 170.755 -6.28573 89.9941 -7.53764 6.90936 -6.76731 7.40974 15.1521 25.8924 28.7808 1.48996e-005 2.93456e-005 -0.133244 5.95768 -89.0248 14.9544 -0.0471432 0.412098 3.28339 -0.028958 0.41377 -19.2513 -0.168809 0.378881 0.761353 -0.168818 0.378875 92.1481 -52.9223 -96.9761 5.77909 33.0865 7.39231 1.45792 0.113144 -14.5074 -5.37983 -0.32001 -0.0162448 -96.5631 -52.3145 69.7306 -6.258 -26.2287 -4.75556 11.4109 45.231 -15.6315 -14.8336 2.10674 -24.2972 -7.81216 1.11243 -13.3025 -16.2384 2.55114 -3.76314 
-72.9547 97.5931 -66.8422 70.8534 51.7693 113.057 -174.12 10.5752 88.1676 -10.3144 -23.4634 -4.61245 63.7543 3.16655 1.76 28.7808 5.58174e-006 2.58452e-007 171.095 -5.82069 89.9198 -7.44058 12.7465 -7.24165 5.32584 16.2464 28.7379 28.7808 1.48996e-005 2.93456e-005 0.0260929 5.91275 -89.2166 15.049 0.27911 0.433375 3.37801 0.297893 0.420665 -19.1566 0.135928 0.497223 0.855992 0.135937 0.497208 91.9731 -52.0557 -97.3984 7.55424 32.7883 5.36971 1.33543 0.14123 -14.9167 -5.37983 -0.32001 -0.0162448 -94.476 -51.5919 72.5277 -6.88688 -26.5901 -3.45911 20.8532 61.6146 -20.6225 -14.2267 2.46649 -28.6062 -7.6208 1.8008 -12.5748 -16.8909 3.26163 -3.96014 
-73.2843 98.2191 -66.7606 75.2903 41.1834 108.551 -173.508 9.32877 89.2151 -8.42099 -22.7434 -4.80398 61.6001 3.84573 2.17592 28.7808 5.58174e-006 2.58452e-007 171.267 -4.50928 90.2198 -8.44052 22.2666 -6.17287 9.09918 15.8619 26.1647 28.7808 1.48996e-005 2.93456e-005 0.179238 5.87115 -89.5273 15.1327 0.581369 0.387698 3.46184 0.597864 0.361729 -19.0735 0.437973 0.544494 0.939133 0.437977 0.544502 91.3878 -52.0774 -98.2727 8.97332 32.345 2.75643 1.4464 0.142437 -15.194 -5.37983 -0.32001 -0.0162448 -92.8283 -50.7719 74.7159 -7.35736 -25.5595 -1.57143 38.1509 73.682 -36.623 -13.9563 1.79237 -22.8784 -7.14594 2.45515 -12.1488 -17.4753 3.97223 -4.04874 
-73.6156 98.7443 -66.624 78.857 30.6482 104.659 -173.34 7.75069 89.5969 -7.23164 -22.5794 -4.66747 59.4522 4.2977 2.48945 28.7808 5.58174e-006 2.58452e-007 171.55 -3.20349 90.6022 -10.7201 25.6829 -5.90723 14.6371 14.2424 21.3549 28.7808 1.48996e-005 2.93456e-005 0.298908 5.91946 -89.685 15.0353 0.839995 0.423404 3.36456 0.857811 0.386016 -19.1715 0.673933 0.656292 0.841098 0.673912 0.656288 90.935 -52.7297 -98.8177 10.7006 32.1423 -0.661964 1.37808 0.15832 -15.2216 -5.37983 -0.32001 -0.0162448 -91.8249 -50.4275 76.111 -7.8171 -25.3916 0.615486 59.068 77.5183 -57.2743 -19.295 1.57246 -15.455 -7.23598 3.095 -10.9927 -17.6743 4.63679 -4.86173 
-73.7331 99.1008 -66.5048 82.6991 19.9684 101.349 -172.755 4.21446 90.2655 -5.2312 -22.0783 -4.71335 58.228 4.96635 2.94314 28.7808 5.58174e-006 2.58452e-007 171.22 -3.84703 90.5017 -12.3601 30.2622 -4.91781 19.1667 14.4109 19.7991 28.7808 1.48996e-005 2.93456e-005 0.478232 6.09952 -89.822 14.6727 1.18144 0.41842 3.00227 1.19872 0.366003 -19.5357 1.00109 0.754178 0.47696 1.00106 0.754167 90.7604 -54.1225 -98.7929 12.1679 31.6048 -3.83765 1.58761 0.118528 -15.4346 -5.37983 -0.32001 -0.0162448 -91.8658 -51.0981 76.2126 -7.06605 -25.7808 3.25591 85.2464 77.564 -82.4501 -27.4615 2.21201 -14.9863 -7.97636 3.53779 -10.7953 -17.5403 4.91684 -4.28928 
-73.3197 99.4292 -67.335 89.59 10.1786 96.02 -173.895 -3.82658 87.4833 -3.64491 -26.6896 -6.12659 55.2986 6.75009 4.24627 28.7808 5.58174e-006 2.58452e-007 167.141 -8.06723 84.9784 -14.4319 29.6421 -3.66371 22.7659 15.2959 19.5585 28.7808 1.48996e-005 2.93456e-005 0.52304 6.7507 -89.6375 13.3633 1.45713 1.01409 1.69279 1.50037 0.948962 -20.8432 1.08503 1.40513 -0.830578 1.08502 1.40512 90.0052 -55.1279 -99.684 13.5199 30.4592 -6.11448 2.1828 0.0294274 -15.8304 -5.37983 -0.32001 -0.0162448 -91.3665 -51.4741 77.0339 -6.73084 -26.888 4.85258 53.5178 83.6171 -49.7776 2.36275 -0.79149 -22.5138 -7.98691 3.89045 -9.86914 -18.1564 5.24637 -4.39721 
-73.8988 99.7838 -66.8873 89.66 0.760984 95.6326 -173.484 -2.68401 87.8905 -4.90377 -24.7874 -5.9066 53.5246 7.86815 5.11833 28.7808 5.58174e-006 2.58452e-007 167.544 -7.60722 85.9949 -14.2211 31.2542 -2.41344 27.4902 14.601 17.166 28.7808 1.48996e-005 2.93456e-005 0.519621 6.67126 -89.4936 13.524 1.42852 1.03468 1.8535 1.47269 0.97079 -20.6822 1.05155 1.41615 -0.66953 1.05153 1.41614 89.1034 -56.8867 -100.597 14.4716 29.161 -7.7054 2.89218 -0.0782787 -16.3266 -5.37983 -0.32001 -0.0162448 -90.8892 -51.1346 77.6577 -6.72466 -26.835 6.6131 135.202 82.4418 -129.856 2.67778 -1.03126 -25.6158 -8.42992 4.05467 -9.49519 -18.1864 5.34791 -4.36541 
